<?xml version="1.0" encoding="UTF-8"?>
<svg width="312.13mm" height="89.326mm" version="1.1" viewBox="0 0 312.13 89.326" xmlns="http://www.w3.org/2000/svg" xmlns:xlink="http://www.w3.org/1999/xlink">
  <defs>
    <g id="a">
      <g id="b">
        <path id="g" transform="rotate(18 3.1569 -.5)" d="m0 0v1h0.5z"/>
        <use transform="scale(-1,1)" width="100%" height="100%" xlink:href="#g"/>
      </g>
      <g id="c">
        <use transform="rotate(72)" width="100%" height="100%" xlink:href="#b"/>
        <use transform="rotate(144)" width="100%" height="100%" xlink:href="#b"/>
      </g>
      <use transform="scale(-1,1)" width="100%" height="100%" xlink:href="#c"/>
    </g>
  </defs>
  <g transform="matrix(.10417 0 0 .10417 16.54 16.54)" stroke-width="2.54">
    <rect width="810" height="540" fill="#2765b2"/>
    <g transform="matrix(30,0,0,30,405,270)" fill="#fc0">
      <use y="-6" width="100%" height="100%" xlink:href="#a"/>
      <use y="6" width="100%" height="100%" xlink:href="#a"/>
      <g id="f">
        <use x="-6" width="100%" height="100%" stroke-width="2.54" xlink:href="#a"/>
        <use transform="rotate(216 -2.3442 -2.1107)" width="100%" height="100%" stroke-width="2.54" xlink:href="#a"/>
        <use transform="rotate(144,-2.1107,-2.3442)" width="100%" height="100%" stroke-width="2.54" xlink:href="#a"/>
        <use transform="rotate(72,-4.6626,-2.0759)" width="100%" height="100%" stroke-width="2.54" xlink:href="#a"/>
        <use transform="rotate(72 -5.0759 .5335)" width="100%" height="100%" stroke-width="2.54" xlink:href="#a"/>
      </g>
      <use transform="scale(-1,1)" width="100%" height="100%" xlink:href="#f"/>
    </g>
  </g>
</svg>
